ply
format ascii 1.0
comment VCGLIB generated
element vertex 24
property float x
property float y
property float z
property uchar red
property uchar green
property uchar blue
property uchar alpha
element face 12
property list uchar int vertex_indices
end_header
0 0 0 15 175 15 255 
0 0 0 15 175 15 255 
0 0 0 15 175 15 255 
0.2 0 0 15 175 15 255 
0.2 0 0 15 175 15 255 
0.2 0 0 15 175 15 255 
0.2 0.2 0 15 175 15 255 
0.2 0.2 0 15 175 15 255 
0.2 0.2 0 15 175 15 255 
0 0.2 0 15 175 15 255 
0 0.2 0 15 175 15 255 
0 0.2 0 15 175 15 255 
0 0 0.2 15 175 15 255 
0 0 0.2 15 175 15 255 
0 0 0.2 15 175 15 255 
0 0.2 0.2 15 175 15 255 
0 0.2 0.2 15 175 15 255 
0 0.2 0.2 15 175 15 255 
0.2 0.2 0.2 15 175 15 255 
0.2 0.2 0.2 15 175 15 255 
0.2 0.2 0.2 15 175 15 255 
0.2 0 0.2 15 175 15 255 
0.2 0 0.2 15 175 15 255 
0.2 0 0.2 15 175 15 255 
3 9 3 0 
3 22 1 4 
3 14 11 2 
3 22 13 1 
3 9 6 3 
3 19 5 7 
3 23 5 19 
3 16 8 10 
3 20 8 16 
3 17 11 14 
3 18 15 12 
3 21 18 12 
