ply
format ascii 1.0
comment VCGLIB generated
element vertex 24
property float x
property float y
property float z
property uchar red
property uchar green
property uchar blue
property uchar alpha
element face 12
property list uchar int vertex_indices
property uchar red
property uchar green
property uchar blue
property uchar alpha
end_header
0 0 0 223 214 214 255 
0 0 0 223 214 214 255 
0 0 0 223 214 214 255 
0 -0.045 0 223 214 214 255 
0 -0.045 0 223 214 214 255 
0 -0.045 0 223 214 214 255 
0 -0.045 -0.045 223 214 214 255 
0 -0.045 -0.045 223 214 214 255 
0 -0.045 -0.045 223 214 214 255 
0 0 -0.045 223 214 214 255 
0 0 -0.045 223 214 214 255 
0 0 -0.045 223 214 214 255 
0.045 0 0 223 214 214 255 
0.045 0 0 223 214 214 255 
0.045 0 0 223 214 214 255 
0.045 0 -0.045 223 214 214 255 
0.045 0 -0.045 223 214 214 255 
0.045 0 -0.045 223 214 214 255 
0.045 -0.045 -0.045 223 214 214 255 
0.045 -0.045 -0.045 223 214 214 255 
0.045 -0.045 -0.045 223 214 214 255 
0.045 -0.045 0 223 214 214 255 
0.045 -0.045 0 223 214 214 255 
0.045 -0.045 0 223 214 214 255 
3 9 3 0 192 192 192 255 
3 22 1 4 192 192 192 255 
3 14 11 2 192 192 192 255 
3 22 13 1 192 192 192 255 
3 9 6 3 192 192 192 255 
3 19 5 7 192 192 192 255 
3 23 5 19 192 192 192 255 
3 16 8 10 192 192 192 255 
3 20 8 16 192 192 192 255 
3 17 11 14 192 192 192 255 
3 18 15 12 192 192 192 255 
3 21 18 12 192 192 192 255 
